<svg xmlns="http://www.w3.org/2000/svg" viewBox="0 0 126 245"><title>Asset 1</title><g id="Layer_2" data-name="Layer 2"><g id="Layer_1-2" data-name="Layer 1"><path d="M86,15V9.57A9.6,9.6,0,0,0,76.43,0H49.57A9.6,9.6,0,0,0,40,9.57V15Z" style="fill:#f5f5f7"/><path d="M104.78,31A10.23,10.23,0,0,1,115,41.22V223.78A10.23,10.23,0,0,1,104.78,234H21.22A10.23,10.23,0,0,1,11,223.78V41.22A10.23,10.23,0,0,1,21.22,31h83.56m0-11H21.22A21.28,21.28,0,0,0,0,41.22V223.78A21.28,21.28,0,0,0,21.22,245h83.56A21.28,21.28,0,0,0,126,223.78V41.22A21.28,21.28,0,0,0,104.78,20Z" style="fill:#f5f5f7"/><path d="M104.78,31A10.23,10.23,0,0,1,115,41.22V203.78A10.23,10.23,0,0,1,104.78,214H21.22A10.23,10.23,0,0,1,11,203.78V41.22A10.23,10.23,0,0,1,21.22,31h83.56m0-11H21.22A21.28,21.28,0,0,0,0,41.22V203.78A21.28,21.28,0,0,0,21.22,225h83.56A21.28,21.28,0,0,0,126,203.78V41.22A21.28,21.28,0,0,0,104.78,20Z" style="fill:#f5f5f7"/><polygon points="117 215 3 215 3 235 117 235 117 215 117 215" style="fill:#f5f5f7"/><polygon points="71.67 113.33 71.67 96 54.33 96 54.33 113.33 37 113.33 37 130.67 54.33 130.67 54.33 148 71.67 148 71.67 130.67 89 130.67 89 113.33 71.67 113.33" style="fill:#f5f5f7"/></g></g></svg>